<svg xmlns="http://www.w3.org/2000/svg" width="900" height="132" viewBox="0 0 900 132" role="img" aria-label="GitHub achievements de Theo Goulart">
  <defs>
    <linearGradient id="card" x1="0" y1="0" x2="1" y2="1">
      <stop offset="0" stop-color="#111827"/>
      <stop offset="1" stop-color="#0b1220"/>
    </linearGradient>
    <linearGradient id="shark" x1="0" y1="0" x2="1" y2="1">
      <stop offset="0" stop-color="#38bdf8"/>
      <stop offset="1" stop-color="#2563eb"/>
    </linearGradient>
    <linearGradient id="pair" x1="0" y1="0" x2="1" y2="1">
      <stop offset="0" stop-color="#fbbf24"/>
      <stop offset="1" stop-color="#f97316"/>
    </linearGradient>
  </defs>
  <rect x="2" y="2" width="896" height="128" rx="18" fill="none" stroke="#26364f" stroke-width="2"/>
  <g transform="translate(22 16)">
    <rect width="412" height="100" rx="14" fill="url(#card)" stroke="#26364f"/>
    <circle cx="58" cy="50" r="34" fill="url(#shark)"/>
    <path d="M36 55c8-19 27-26 45-17-5 3-8 7-10 11 9 0 15 4 19 10-12 7-23 9-33 5l-9 9 2-13c-6-1-10-3-14-5z" fill="#f8fafc"/>
    <circle cx="65" cy="45" r="3" fill="#0f172a"/>
    <text x="112" y="45" fill="#f8fafc" font-family="Arial, sans-serif" font-size="22" font-weight="700">Pull Shark</text>
    <text x="112" y="72" fill="#94a3b8" font-family="Arial, sans-serif" font-size="15">Merged pull requests</text>
  </g>
  <g transform="translate(466 16)">
    <rect width="412" height="100" rx="14" fill="url(#card)" stroke="#26364f"/>
    <circle cx="58" cy="50" r="34" fill="url(#pair)"/>
    <path d="M39 39h17c8 0 13 4 13 10s-5 10-13 10H39m21-20h8c8 0 13 4 13 10s-5 10-13 10h-8M49 31v38m20-38v38" fill="none" stroke="#fff7ed" stroke-width="6" stroke-linecap="round"/>
    <text x="112" y="45" fill="#f8fafc" font-family="Arial, sans-serif" font-size="22" font-weight="700">Pair Extraordinaire</text>
    <text x="112" y="72" fill="#94a3b8" font-family="Arial, sans-serif" font-size="15">Collaborative contributions</text>
  </g>
</svg>
